<?xml version="1.0" standalone="no"?>
<!DOCTYPE svg PUBLIC "-//W3C//DTD SVG 20010904//EN"
 "http://www.w3.org/TR/2001/REC-SVG-20010904/DTD/svg10.dtd">
<svg version="1.0" xmlns="http://www.w3.org/2000/svg"
 width="880.000000pt" height="880.000000pt" viewBox="0 0 880.000000 880.000000"
 preserveAspectRatio="xMidYMid meet">
<metadata>
Created by potrace 1.14, written by Peter Selinger 2001-2017
</metadata>
<g transform="translate(0.000000,880.000000) scale(0.100000,-0.100000)"
fill="#000000" stroke="none">
<path d="M4169 8576 c-2 -2 -44 -6 -94 -10 -168 -11 -267 -21 -305 -31 -8 -2
-36 -6 -61 -9 -58 -7 -237 -49 -309 -74 -117 -40 -190 -91 -226 -157 -30 -55
10 -142 89 -192 61 -39 210 -92 302 -108 11 -2 31 -7 45 -10 14 -3 52 -10 85
-16 33 -5 71 -12 85 -14 14 -2 50 -7 80 -10 30 -3 73 -8 95 -11 22 -3 68 -7
101 -8 34 -2 67 -7 73 -10 6 -4 11 -3 11 3 0 6 11 7 28 2 22 -6 557 -8 557 -2
0 1 31 4 68 6 177 9 424 45 557 82 127 35 260 88 260 104 0 5 4 9 9 9 19 0 58
46 70 82 23 70 -3 127 -81 181 -29 21 -58 37 -63 37 -6 0 -21 6 -35 13 -14 8
-37 17 -50 21 -65 19 -208 56 -235 60 -16 3 -41 8 -55 11 -14 3 -45 7 -70 10
-25 3 -58 8 -75 10 -16 3 -55 8 -85 11 -30 2 -71 7 -90 10 -42 5 -676 15 -681
10z m447 -121 c99 -3 195 -7 214 -9 19 -2 62 -7 95 -10 33 -4 71 -8 85 -10 14
-2 50 -7 80 -11 30 -3 87 -13 125 -22 39 -8 79 -17 90 -18 11 -2 49 -13 85
-25 123 -40 196 -84 185 -111 -15 -39 -200 -112 -350 -139 -33 -5 -71 -12 -85
-15 -13 -3 -42 -7 -65 -10 -22 -4 -51 -8 -65 -10 -238 -35 -872 -41 -1070 -10
-14 2 -50 7 -80 10 -30 4 -64 8 -75 10 -67 10 -103 16 -125 21 -14 2 -36 6
-50 9 -55 10 -198 57 -250 82 -57 28 -81 50 -74 68 20 49 269 131 491 161 26
3 56 8 67 10 10 2 53 6 94 10 42 3 85 8 96 10 12 2 102 7 201 10 99 3 182 8
184 10 2 2 7 1 11 -1 4 -2 88 -7 186 -10z"/>
<path d="M3019 7502 c-13 -15 -51 -59 -84 -97 -33 -39 -64 -75 -70 -81 -5 -6
-32 -37 -60 -69 -27 -33 -68 -79 -89 -104 -22 -26 -47 -54 -55 -65 -9 -10 -20
-23 -26 -30 -5 -6 -37 -43 -69 -81 -33 -39 -64 -74 -70 -80 -6 -5 -33 -37 -61
-70 -27 -33 -52 -62 -55 -65 -3 -3 -88 -102 -190 -220 -101 -118 -187 -217
-190 -220 -3 -3 -28 -32 -55 -65 -28 -33 -54 -65 -60 -71 -32 -36 -127 -144
-151 -174 -16 -19 -33 -40 -39 -46 -17 -18 -166 -191 -242 -280 -22 -27 -52
-61 -65 -75 -12 -15 -41 -48 -63 -74 -22 -26 -49 -57 -60 -69 -11 -13 -42 -49
-70 -81 -27 -32 -58 -67 -68 -79 -10 -11 -37 -43 -60 -70 -23 -27 -73 -86
-112 -131 -38 -44 -92 -107 -120 -139 -27 -33 -55 -64 -61 -70 -5 -6 -48 -56
-95 -111 -46 -55 -91 -107 -99 -115 -8 -9 -36 -40 -62 -70 -220 -259 -313
-367 -327 -381 -9 -9 -32 -35 -51 -59 -19 -23 -48 -56 -63 -74 -37 -41 -61
-76 -55 -81 2 -2 65 11 139 30 74 19 146 36 159 39 14 3 52 12 85 21 56 14 71
17 120 28 11 3 40 10 65 17 25 7 54 14 65 16 11 2 83 20 160 39 77 19 149 37
160 39 11 2 49 12 85 21 36 9 72 18 80 20 8 2 35 8 60 15 25 7 52 13 60 15 8
2 33 8 55 13 22 6 51 13 65 16 14 3 72 17 130 31 58 15 114 29 125 31 11 3 25
6 30 8 6 2 28 7 50 11 55 12 55 12 58 15 2 2 15 5 52 13 11 3 38 10 60 16 22
5 54 13 72 16 18 3 42 9 55 14 13 5 26 9 31 10 42 5 53 15 65 54 7 23 51 159
98 302 47 143 87 265 88 270 2 12 45 143 53 165 3 8 7 20 9 25 1 6 19 60 39
120 21 61 38 115 39 120 1 6 32 102 70 215 37 113 70 212 72 220 3 8 5 16 5
17 0 2 7 22 15 45 9 24 17 48 18 53 2 6 6 17 9 25 3 8 29 87 57 175 28 88 54
167 57 175 8 19 11 32 16 50 2 8 38 121 81 250 43 129 79 242 82 250 2 8 24
76 49 150 25 74 48 144 50 154 3 11 8 23 12 27 5 5 46 -40 93 -99 47 -59 92
-116 102 -127 23 -28 159 -198 185 -232 12 -15 31 -39 43 -53 12 -14 38 -46
58 -72 20 -27 40 -48 44 -48 4 0 8 -5 8 -11 0 -6 9 -21 20 -33 18 -19 128
-156 192 -237 14 -19 35 -44 45 -56 36 -42 49 -59 78 -98 16 -22 32 -42 36
-45 3 -3 59 -72 124 -155 66 -82 122 -152 125 -155 3 -3 50 -61 104 -130 54
-69 103 -129 107 -134 9 -10 26 7 65 59 10 15 28 37 39 49 11 12 31 37 45 56
14 18 32 41 40 50 8 10 22 27 30 37 14 17 156 196 173 218 4 6 18 22 32 37 13
15 36 45 52 65 15 21 30 40 33 43 3 3 59 73 125 155 66 83 122 152 125 155 4
4 64 79 125 158 5 7 17 21 25 30 9 9 76 94 150 187 74 94 137 172 140 175 3 3
21 25 40 50 19 25 39 50 45 56 6 6 28 34 50 62 21 29 42 49 46 44 6 -7 83
-240 254 -767 47 -148 90 -279 95 -290 11 -25 79 -235 85 -261 2 -10 22 -71
44 -134 38 -112 150 -455 155 -475 2 -5 8 -23 15 -39 6 -16 13 -36 15 -45 2
-9 6 -23 9 -31 3 -8 60 -184 127 -390 67 -206 124 -382 127 -390 4 -8 6 -18 5
-22 -2 -7 17 -14 58 -22 21 -4 303 -73 380 -93 14 -3 30 -7 35 -8 6 -2 78 -19
160 -40 83 -20 157 -39 165 -40 8 -2 15 -4 15 -5 0 -1 9 -3 20 -5 11 -1 40 -8
65 -14 40 -11 85 -22 145 -36 19 -4 223 -54 373 -91 35 -9 68 -17 75 -18 7 -2
19 -5 27 -8 8 -3 57 -16 109 -28 52 -12 101 -23 110 -25 9 -3 45 -11 81 -20
35 -9 74 -18 85 -20 11 -2 20 -4 20 -5 0 -2 27 -9 60 -15 11 -2 38 -9 60 -14
22 -5 41 -8 43 -7 2 2 -7 15 -20 29 -13 14 -39 44 -57 67 -19 24 -40 48 -46
54 -6 6 -66 76 -135 156 -68 80 -127 147 -130 150 -3 3 -43 50 -90 105 -47 55
-89 105 -95 111 -5 6 -32 37 -60 70 -27 32 -70 81 -94 109 -24 27 -53 61 -65
75 -49 58 -211 245 -216 250 -3 3 -30 34 -60 70 -63 74 -100 118 -115 134 -6
6 -78 90 -160 186 -83 96 -157 182 -165 191 -8 9 -34 38 -57 65 -55 65 -80 94
-106 124 -12 14 -47 54 -77 90 -30 36 -57 67 -60 70 -3 3 -48 55 -99 115 -52
61 -99 115 -105 120 -6 6 -23 26 -37 45 -15 19 -45 54 -68 78 -22 24 -41 46
-41 49 0 3 -10 15 -22 27 -13 12 -43 46 -68 75 -25 30 -50 59 -55 65 -14 15
-306 355 -331 385 -10 13 -28 33 -39 45 -11 12 -45 51 -75 86 -30 36 -64 75
-75 86 -11 12 -34 39 -51 60 -18 22 -42 51 -55 65 -13 15 -42 47 -63 73 -22
25 -42 46 -45 46 -3 -1 -22 -21 -41 -46 -19 -25 -44 -56 -55 -68 -23 -27 -31
-37 -105 -131 -30 -39 -57 -72 -60 -75 -3 -3 -28 -34 -55 -70 -28 -36 -53 -67
-56 -70 -3 -3 -52 -63 -109 -135 -56 -71 -109 -135 -116 -141 -8 -6 -14 -15
-14 -20 0 -5 -18 -29 -40 -54 -23 -25 -44 -50 -48 -55 -11 -16 -85 -109 -99
-125 -7 -8 -29 -35 -48 -60 -19 -25 -40 -51 -47 -59 -6 -8 -59 -73 -117 -145
-57 -72 -108 -132 -113 -134 -4 -2 -8 -8 -8 -14 0 -5 -6 -15 -12 -22 -7 -7
-26 -30 -43 -51 -16 -20 -35 -42 -40 -49 -6 -6 -34 -41 -63 -78 -30 -38 -57
-68 -62 -68 -4 0 -21 16 -36 36 -16 20 -36 44 -44 54 -8 9 -26 32 -40 50 -14
18 -32 40 -40 50 -8 10 -26 32 -40 50 -31 42 -73 93 -80 100 -3 3 -19 23 -36
45 -16 21 -36 46 -44 55 -9 9 -29 34 -45 55 -17 22 -36 46 -43 53 -7 8 -25 30
-40 50 -15 21 -29 39 -33 42 -3 3 -59 73 -125 155 -65 83 -121 152 -124 155
-3 3 -39 48 -80 100 -41 52 -79 100 -85 106 -31 35 -45 55 -45 64 0 6 -4 10
-8 10 -4 0 -26 23 -47 52 -22 28 -44 56 -50 62 -5 6 -46 56 -89 111 -43 55
-84 105 -90 110 -6 6 -27 31 -46 57 -19 26 -38 48 -41 48 -3 0 -17 -13 -30
-28z"/>
<path d="M2996 5501 c-1 -3 -2 -825 -2 -1826 1 -1336 4 -1825 13 -1840 46 -81
171 -80 205 3 8 20 11 522 12 1845 1 999 -1 1818 -4 1818 -17 5 -222 4 -224 0z"/>
<path d="M5586 5501 c-2 -3 -3 -828 -2 -1833 l1 -1827 28 -29 c61 -63 166 -43
192 37 5 16 10 3367 6 3627 l-1 30 -111 0 c-60 0 -111 -2 -113 -5z"/>
<path d="M3567 4906 c-1 -6 -3 -852 -2 -1881 0 -1482 3 -1876 13 -1900 28 -68
90 -66 113 4 9 26 12 500 12 1903 0 1028 -3 1872 -7 1876 -12 12 -125 10 -129
-2z"/>
<path d="M5106 4900 c-2 -8 -3 -859 -2 -1890 l1 -1875 23 -33 c13 -17 29 -32
37 -32 26 0 57 36 64 75 5 31 7 3742 2 3765 0 3 -28 6 -61 6 -46 0 -61 -4 -64
-16z"/>
<path d="M4291 4440 c-5 -3 -8 -936 -8 -2075 -1 -1865 1 -2072 15 -2095 18
-29 42 -54 42 -44 0 3 7 1 14 -6 36 -29 123 5 145 57 8 21 11 564 9 2097 l-3
2069 -103 1 c-57 1 -107 -1 -111 -4z"/>
</g>
</svg>
