<svg xmlns="http://www.w3.org/2000/svg" xmlns:xlink="http://www.w3.org/1999/xlink" viewBox="0 0 80 80" fill="#0076C4">
  <path d="M11 10C9.632813 10 8.617188 11.042969 7.984375 12.3125C7.351563 13.578125 7 15.207031 7 17C7 18.792969 7.351563 20.421875 7.984375 21.6875C8.617188 22.957031 9.632813 24 11 24L11 68C11 68.550781 11.449219 69 12 69C12.550781 69 13 68.550781 13 68L18 68C18 68.550781 18.449219 69 19 69C19.550781 69 20 68.550781 20 68L25 68C25 68.550781 25.449219 69 26 69C26.550781 69 27 68.550781 27 68L32 68C32 68.550781 32.449219 69 33 69C33.550781 69 34 68.550781 34 68L39 68C39 68.550781 39.449219 69 40 69C40.550781 69 41 68.550781 41 68L46 68C46 68.550781 46.449219 69 47 69C47.550781 69 48 68.550781 48 68L53 68C53 68.550781 53.449219 69 54 69C54.550781 69 55 68.550781 55 68L60 68C60 68.550781 60.449219 69 61 69C61.550781 69 62 68.550781 62 68L67 68C67 68.550781 67.449219 69 68 69C68.550781 69 69 68.550781 69 68L69 24C70.367188 24 71.382813 22.957031 72.015625 21.6875C72.648438 20.421875 73 18.792969 73 17C73 15.207031 72.648438 13.578125 72.015625 12.3125C71.382813 11.042969 70.367188 10 69 10 Z M 11 12L69 12C69.289063 12 69.773438 12.300781 70.226563 13.203125C70.679688 14.109375 71 15.476563 71 17C71 18.523438 70.679688 19.890625 70.226563 20.796875C69.773438 21.699219 69.289063 22 69 22L11 22C10.710938 22 10.226563 21.699219 9.773438 20.796875C9.320313 19.890625 9 18.523438 9 17C9 15.476563 9.320313 14.109375 9.773438 13.203125C10.226563 12.300781 10.710938 12 11 12 Z M 13 24L67 24L67 66L13 66 Z M 62 24C61.449219 24 61 24.449219 61 25C61 25.550781 61.449219 26 62 26C62.550781 26 63 25.550781 63 25C63 24.449219 62.550781 24 62 24 Z M 18 24C17.449219 24 17 24.449219 17 25C17 25.550781 17.449219 26 18 26C18.550781 26 19 25.550781 19 25C19 24.449219 18.550781 24 18 24 Z M 37 25C36.449219 25 36 25.449219 36 26C36 26.550781 36.449219 27 37 27C37.550781 27 38 26.550781 38 26C38 25.449219 37.550781 25 37 25 Z M 43 25C42.449219 25 42 25.449219 42 26C42 26.550781 42.449219 27 43 27C43.550781 27 44 26.550781 44 26C44 25.449219 43.550781 25 43 25 Z M 18 28C17.449219 28 17 28.449219 17 29C17 29.550781 17.449219 30 18 30C18.550781 30 19 29.550781 19 29C19 28.449219 18.550781 28 18 28 Z M 34 28C33.449219 28 33 28.449219 33 29C33 29.550781 33.449219 30 34 30C34.550781 30 35 29.550781 35 29C35 28.449219 34.550781 28 34 28 Z M 46 28C45.449219 28 45 28.449219 45 29C45 29.550781 45.449219 30 46 30C46.550781 30 47 29.550781 47 29C47 28.449219 46.550781 28 46 28 Z M 62 28C61.449219 28 61 28.449219 61 29C61 29.550781 61.449219 30 62 30C62.550781 30 63 29.550781 63 29C63 28.449219 62.550781 28 62 28 Z M 31 31C30.449219 31 30 31.449219 30 32C30 32.550781 30.449219 33 31 33C31.550781 33 32 32.550781 32 32C32 31.449219 31.550781 31 31 31 Z M 40 31C39.449219 31 39 31.449219 39 32C39 32.550781 39.449219 33 40 33C40.550781 33 41 32.550781 41 32C41 31.449219 40.550781 31 40 31 Z M 49 31C48.449219 31 48 31.449219 48 32C48 32.550781 48.449219 33 49 33C49.550781 33 50 32.550781 50 32C50 31.449219 49.550781 31 49 31 Z M 18 32C17.449219 32 17 32.449219 17 33C17 33.550781 17.449219 34 18 34C18.550781 34 19 33.550781 19 33C19 32.449219 18.550781 32 18 32 Z M 62 32C61.449219 32 61 32.449219 61 33C61 33.550781 61.449219 34 62 34C62.550781 34 63 33.550781 63 33C63 32.449219 62.550781 32 62 32 Z M 28 34C27.449219 34 27 34.449219 27 35C27 35.550781 27.449219 36 28 36C28.550781 36 29 35.550781 29 35C29 34.449219 28.550781 34 28 34 Z M 37 34C36.449219 34 36 34.449219 36 35C36 35.550781 36.449219 36 37 36C37.550781 36 38 35.550781 38 35C38 34.449219 37.550781 34 37 34 Z M 43 34C42.449219 34 42 34.449219 42 35C42 35.550781 42.449219 36 43 36C43.550781 36 44 35.550781 44 35C44 34.449219 43.550781 34 43 34 Z M 52 34C51.449219 34 51 34.449219 51 35C51 35.550781 51.449219 36 52 36C52.550781 36 53 35.550781 53 35C53 34.449219 52.550781 34 52 34 Z M 18 36C17.449219 36 17 36.449219 17 37C17 37.550781 17.449219 38 18 38C18.550781 38 19 37.550781 19 37C19 36.449219 18.550781 36 18 36 Z M 62 36C61.449219 36 61 36.449219 61 37C61 37.550781 61.449219 38 62 38C62.550781 38 63 37.550781 63 37C63 36.449219 62.550781 36 62 36 Z M 31 37C30.449219 37 30 37.449219 30 38C30 38.550781 30.449219 39 31 39C31.550781 39 32 38.550781 32 38C32 37.449219 31.550781 37 31 37 Z M 40 37C39.449219 37 39 37.449219 39 38C39 38.550781 39.449219 39 40 39C40.550781 39 41 38.550781 41 38C41 37.449219 40.550781 37 40 37 Z M 49 37C48.449219 37 48 37.449219 48 38C48 38.550781 48.449219 39 49 39C49.550781 39 50 38.550781 50 38C50 37.449219 49.550781 37 49 37 Z M 18 40C17.449219 40 17 40.449219 17 41C17 41.550781 17.449219 42 18 42C18.550781 42 19 41.550781 19 41C19 40.449219 18.550781 40 18 40 Z M 34 40C33.449219 40 33 40.449219 33 41C33 41.550781 33.449219 42 34 42C34.550781 42 35 41.550781 35 41C35 40.449219 34.550781 40 34 40 Z M 46 40C45.449219 40 45 40.449219 45 41C45 41.550781 45.449219 42 46 42C46.550781 42 47 41.550781 47 41C47 40.449219 46.550781 40 46 40 Z M 62 40C61.449219 40 61 40.449219 61 41C61 41.550781 61.449219 42 62 42C62.550781 42 63 41.550781 63 41C63 40.449219 62.550781 40 62 40 Z M 37 43C36.449219 43 36 43.449219 36 44C36 44.550781 36.449219 45 37 45C37.550781 45 38 44.550781 38 44C38 43.449219 37.550781 43 37 43 Z M 43 43C42.449219 43 42 43.449219 42 44C42 44.550781 42.449219 45 43 45C43.550781 45 44 44.550781 44 44C44 43.449219 43.550781 43 43 43 Z M 18 44C17.449219 44 17 44.449219 17 45C17 45.550781 17.449219 46 18 46C18.550781 46 19 45.550781 19 45C19 44.449219 18.550781 44 18 44 Z M 62 44C61.449219 44 61 44.449219 61 45C61 45.550781 61.449219 46 62 46C62.550781 46 63 45.550781 63 45C63 44.449219 62.550781 44 62 44 Z M 40 46C39.449219 46 39 46.449219 39 47C39 47.550781 39.449219 48 40 48C40.550781 48 41 47.550781 41 47C41 46.449219 40.550781 46 40 46 Z M 18 48C17.449219 48 17 48.449219 17 49C17 49.550781 17.449219 50 18 50C18.550781 50 19 49.550781 19 49C19 48.449219 18.550781 48 18 48 Z M 26 48C25.449219 48 25 48.449219 25 49C25 49.550781 25.449219 50 26 50C26.550781 50 27 49.550781 27 49C27 48.449219 26.550781 48 26 48 Z M 54 48C53.449219 48 53 48.449219 53 49C53 49.550781 53.449219 50 54 50C54.550781 50 55 49.550781 55 49C55 48.449219 54.550781 48 54 48 Z M 62 48C61.449219 48 61 48.449219 61 49C61 49.550781 61.449219 50 62 50C62.550781 50 63 49.550781 63 49C63 48.449219 62.550781 48 62 48 Z M 18 52C17.449219 52 17 52.449219 17 53C17 53.550781 17.449219 54 18 54C18.550781 54 19 53.550781 19 53C19 52.449219 18.550781 52 18 52 Z M 26 52C25.449219 52 25 52.449219 25 53C25 53.550781 25.449219 54 26 54C26.550781 54 27 53.550781 27 53C27 52.449219 26.550781 52 26 52 Z M 30 52C29.449219 52 29 52.449219 29 53C29 53.550781 29.449219 54 30 54C30.550781 54 31 53.550781 31 53C31 52.449219 30.550781 52 30 52 Z M 50 52C49.449219 52 49 52.449219 49 53C49 53.550781 49.449219 54 50 54C50.550781 54 51 53.550781 51 53C51 52.449219 50.550781 52 50 52 Z M 54 52C53.449219 52 53 52.449219 53 53C53 53.550781 53.449219 54 54 54C54.550781 54 55 53.550781 55 53C55 52.449219 54.550781 52 54 52 Z M 62 52C61.449219 52 61 52.449219 61 53C61 53.550781 61.449219 54 62 54C62.550781 54 63 53.550781 63 53C63 52.449219 62.550781 52 62 52 Z M 18 56C17.449219 56 17 56.449219 17 57C17 57.550781 17.449219 58 18 58C18.550781 58 19 57.550781 19 57C19 56.449219 18.550781 56 18 56 Z M 62 56C61.449219 56 61 56.449219 61 57C61 57.550781 61.449219 58 62 58C62.550781 58 63 57.550781 63 57C63 56.449219 62.550781 56 62 56 Z M 18 60C17.449219 60 17 60.449219 17 61C17 61.550781 17.449219 62 18 62C18.550781 62 19 61.550781 19 61C19 60.449219 18.550781 60 18 60 Z M 22 60C21.449219 60 21 60.449219 21 61C21 61.550781 21.449219 62 22 62C22.550781 62 23 61.550781 23 61C23 60.449219 22.550781 60 22 60 Z M 26 60C25.449219 60 25 60.449219 25 61C25 61.550781 25.449219 62 26 62C26.550781 62 27 61.550781 27 61C27 60.449219 26.550781 60 26 60 Z M 30 60C29.449219 60 29 60.449219 29 61C29 61.550781 29.449219 62 30 62C30.550781 62 31 61.550781 31 61C31 60.449219 30.550781 60 30 60 Z M 34 60C33.449219 60 33 60.449219 33 61C33 61.550781 33.449219 62 34 62C34.550781 62 35 61.550781 35 61C35 60.449219 34.550781 60 34 60 Z M 38 60C37.449219 60 37 60.449219 37 61C37 61.550781 37.449219 62 38 62C38.550781 62 39 61.550781 39 61C39 60.449219 38.550781 60 38 60 Z M 42 60C41.449219 60 41 60.449219 41 61C41 61.550781 41.449219 62 42 62C42.550781 62 43 61.550781 43 61C43 60.449219 42.550781 60 42 60 Z M 46 60C45.449219 60 45 60.449219 45 61C45 61.550781 45.449219 62 46 62C46.550781 62 47 61.550781 47 61C47 60.449219 46.550781 60 46 60 Z M 50 60C49.449219 60 49 60.449219 49 61C49 61.550781 49.449219 62 50 62C50.550781 62 51 61.550781 51 61C51 60.449219 50.550781 60 50 60 Z M 54 60C53.449219 60 53 60.449219 53 61C53 61.550781 53.449219 62 54 62C54.550781 62 55 61.550781 55 61C55 60.449219 54.550781 60 54 60 Z M 58 60C57.449219 60 57 60.449219 57 61C57 61.550781 57.449219 62 58 62C58.550781 62 59 61.550781 59 61C59 60.449219 58.550781 60 58 60 Z M 62 60C61.449219 60 61 60.449219 61 61C61 61.550781 61.449219 62 62 62C62.550781 62 63 61.550781 63 61C63 60.449219 62.550781 60 62 60 Z M 12 71C11.449219 71 11 71.449219 11 72C11 72.550781 11.449219 73 12 73C12.550781 73 13 72.550781 13 72C13 71.449219 12.550781 71 12 71 Z M 19 71C18.449219 71 18 71.449219 18 72C18 72.550781 18.449219 73 19 73C19.550781 73 20 72.550781 20 72C20 71.449219 19.550781 71 19 71 Z M 26 71C25.449219 71 25 71.449219 25 72C25 72.550781 25.449219 73 26 73C26.550781 73 27 72.550781 27 72C27 71.449219 26.550781 71 26 71 Z M 33 71C32.449219 71 32 71.449219 32 72C32 72.550781 32.449219 73 33 73C33.550781 73 34 72.550781 34 72C34 71.449219 33.550781 71 33 71 Z M 40 71C39.449219 71 39 71.449219 39 72C39 72.550781 39.449219 73 40 73C40.550781 73 41 72.550781 41 72C41 71.449219 40.550781 71 40 71 Z M 47 71C46.449219 71 46 71.449219 46 72C46 72.550781 46.449219 73 47 73C47.550781 73 48 72.550781 48 72C48 71.449219 47.550781 71 47 71 Z M 54 71C53.449219 71 53 71.449219 53 72C53 72.550781 53.449219 73 54 73C54.550781 73 55 72.550781 55 72C55 71.449219 54.550781 71 54 71 Z M 61 71C60.449219 71 60 71.449219 60 72C60 72.550781 60.449219 73 61 73C61.550781 73 62 72.550781 62 72C62 71.449219 61.550781 71 61 71 Z M 68 71C67.449219 71 67 71.449219 67 72C67 72.550781 67.449219 73 68 73C68.550781 73 69 72.550781 69 72C69 71.449219 68.550781 71 68 71Z" fill="#0076C4" />
</svg>