<svg xmlns="http://www.w3.org/2000/svg" width="55.48" height="52.746" viewBox="0 0 55.48 52.746"><g transform="translate(0 -0.005)"><path d="M55.48,28.89,42.29,25.66,36.38,7.59l-.22.28h0l-8.42,10.5L19.32,7.87h0l-.22-.28L13.19,25.66,0,28.89,18.73,7.15l.48-.56.15.19.52.63,7.86,9.8,7.85-9.79.01-.01.51-.63.16-.19.47.56Z" fill="#0f485b"/><path d="M35.92,42.55h0a.36.36,0,0,1-.36-.36V19.74h.72V42.19A.36.36,0,0,1,35.92,42.55Z" fill="#009587"/><path d="M35.92,42.91a.72.72,0,0,1-.72-.72V19.38h1.44V42.19a.72.72,0,0,1-.72.72Zm0-22.81Z" fill="#009587"/><path d="M27.76,52.39h0A.36.36,0,0,1,27.4,52V26.44h.72V52a.36.36,0,0,1-.36.39Z" fill="#009587"/><path d="M27.76,52.75A.72.72,0,0,1,27,52V26.08h1.44V52A.72.72,0,0,1,27.76,52.75Zm0-25.95Z" fill="#009587"/><path d="M19.6,42.55h0a.36.36,0,0,1-.36-.36V19.74H20V42.19a.36.36,0,0,1-.4.36Z" fill="#009587"/><path d="M19.6,42.91a.72.72,0,0,1-.72-.72V19.38h1.44V42.19a.72.72,0,0,1-.72.72Zm0-22.81Z" fill="#009587"/><path d="M32.61,47h0c-.12,0-.22-.17-.22-.37V23.47h.43V46.58C32.82,46.78,32.73,47,32.61,47Z" fill="#9edd79"/><path d="M32.61,47.32c-.24,0-.43-.33-.43-.74V23.1H33V46.58C33,47,32.84,47.32,32.61,47.32Zm0-23.48Z" fill="#9edd79"/><path d="M22.91,47h0c-.12,0-.21-.17-.21-.37V23.47h.43V46.58C23.13,46.78,23,47,22.91,47Z" fill="#9edd79"/><path d="M22.91,47.32c-.23,0-.43-.33-.43-.74V23.1h.86V46.58C23.34,47,23.15,47.32,22.91,47.32Zm0-23.48Z" fill="#9edd79"/><ellipse cx="7.62" cy="1.73" rx="7.62" ry="1.73" transform="translate(20.32 0.38)" fill="none" stroke="#009587" stroke-miterlimit="10" stroke-width="0.75"/></g></svg>