<svg xmlns="http://www.w3.org/2000/svg" width="145.631" height="137.971" viewBox="0 0 145.631 137.971"><g transform="translate(0 0.12)"><path d="M145.631,65.126l-34.623-8.479L95.495,9.215l-.577.735h0l-22.1,27.562L50.714,9.95h0l-.577-.735L34.623,56.647,0,65.126,49.165,8.06l1.26-1.47.394.5,1.365,1.654L72.816,34.467l20.606-25.7.026-.026,1.339-1.654.42-.5L96.44,8.06Z" transform="translate(0 10.091)" fill="#fff"/><g transform="translate(49.559 50.254)"><path d="M36.5,79.615h0a.945.945,0,0,1-.945-.945V19.74h1.89V78.67A.945.945,0,0,1,36.5,79.615Z" transform="translate(8.224 -18.795)" fill="#fff"/><path d="M37.09,81.145a1.89,1.89,0,0,1-1.89-1.89V19.38h3.78V79.255a1.89,1.89,0,0,1-1.89,1.89Zm0-59.875Z" transform="translate(7.639 -19.38)" fill="#fff"/><path d="M28.347,94.557h0a.945.945,0,0,1-.945-1.024V26.44h1.89V93.533a.945.945,0,0,1-.945,1.024Z" transform="translate(-5.038 -7.908)" fill="#fff"/><path d="M29,96.087A1.89,1.89,0,0,1,27,94.118V26.08h3.78V94.118A1.89,1.89,0,0,1,29,96.087ZM29,27.97Z" transform="translate(-5.687 -8.493)" fill="#fff"/><path d="M20.185,79.615h0a.945.945,0,0,1-.945-.945V19.74h1.995V78.67a.945.945,0,0,1-1.05.945Z" transform="translate(-18.295 -18.795)" fill="#fff"/><path d="M20.77,81.145a1.89,1.89,0,0,1-1.89-1.89V19.38h3.78V79.255a1.89,1.89,0,0,1-1.89,1.89Zm0-59.875Z" transform="translate(-18.88 -19.38)" fill="#fff"/></g><g transform="translate(59.008 60.018)"><path d="M32.967,85.235h0c-.315,0-.577-.446-.577-.971V23.47h1.129V84.132C33.519,84.657,33.282,85.235,32.967,85.235Z" transform="translate(-6.377 -22.499)" fill="#fff"/><path d="M33.309,86.676c-.63,0-1.129-.866-1.129-1.942V23.1h2.152V84.733C34.332,85.836,33.912,86.676,33.309,86.676Zm0-61.633Z" transform="translate(-6.718 -23.1)" fill="#fff"/><path d="M23.251,85.235h0c-.315,0-.551-.446-.551-.971V23.47h1.129V84.132C23.829,84.657,23.487,85.235,23.251,85.235Z" transform="translate(-22.123 -22.499)" fill="#fff"/><path d="M23.609,86.676c-.6,0-1.129-.866-1.129-1.942V23.1h2.257V84.733C24.737,85.836,24.239,86.676,23.609,86.676Zm0-61.633Z" transform="translate(-22.48 -23.1)" fill="#fff"/></g><ellipse cx="20.002" cy="4.541" rx="20.002" ry="4.541" transform="translate(53.339 0.38)" fill="none" stroke="#fff" stroke-miterlimit="10" stroke-width="1"/></g></svg>