<svg xmlns="http://www.w3.org/2000/svg" xmlns:xlink="http://www.w3.org/1999/xlink" viewBox="0 0 30 30" fill="#5B150C">
  <path d="M15 3C13.225 3 11.635109 3.775 10.537109 5L8 5C5.239 5 3 7.239 3 10L3 11C5.209 11 7 12.791 7 15L7 17L23 17L23 15C23 12.791 24.791 11 27 11L27 10C27 7.239 24.761 5 22 5L19.462891 5C18.364891 3.775 16.775 3 15 3 z M 15 8C15.552 8 16 8.448 16 9C16 9.552 15.552 10 15 10C14.448 10 14 9.552 14 9C14 8.448 14.448 8 15 8 z M 9 9C9.552 9 10 9.448 10 10C10 10.552 9.552 11 9 11C8.448 11 8 10.552 8 10C8 9.448 8.448 9 9 9 z M 21 9C21.552 9 22 9.448 22 10C22 10.552 21.552 11 21 11C20.448 11 20 10.552 20 10C20 9.448 20.448 9 21 9 z M 2 13C0.895 13 0 13.895 0 15C0 15.738946 0.40436594 16.376387 1 16.722656L1 24L1 25 A 1.0001 1.0001 0 1 0 3 25L3 24L27 24L27 25 A 1.0001 1.0001 0 1 0 29 25L29 21L29 16.722656C29.595634 16.376387 30 15.738946 30 15C30 13.895 29.105 13 28 13L27 13C25.895 13 25 13.895 25 15L25 19L5 19L5 15C5 13.895 4.105 13 3 13L2 13 z" fill="#5B150C" />
</svg>