<svg xmlns="http://www.w3.org/2000/svg" xmlns:xlink="http://www.w3.org/1999/xlink" viewBox="0 0 30 30" fill="#FFFFFF">
  <path d="M15 3C8.3844276 3 3 8.3844276 3 15C3 21.615572 8.3844276 27 15 27C21.615572 27 27 21.615572 27 15C27 8.3844276 21.615572 3 15 3 z M 15.998047 5.0488281C20.73255 5.5157016 24.484298 9.2674502 24.951172 14.001953 A 1 1 0 0 0 24 15 A 1 1 0 0 0 24.951172 15.998047C24.484298 20.73255 20.73255 24.484298 15.998047 24.951172 A 1 1 0 0 0 15 24 A 1 1 0 0 0 14.001953 24.951172C9.2674502 24.484298 5.5157016 20.73255 5.0488281 15.998047 A 1 1 0 0 0 6 15 A 1 1 0 0 0 5.0488281 14.001953C5.3813779 10.62961 7.3814425 7.7576039 10.214844 6.2148438L15 11L15 6 A 1 1 0 0 0 15.998047 5.0488281 z M 9.9902344 8.9902344 A 1.0001 1.0001 0 0 0 9.2929688 10.707031L14.292969 15.707031 A 1.0001 1.0001 0 0 0 15.195312 15.980469L20.195312 14.980469 A 1.0001 1.0001 0 1 0 19.804688 13.019531L15.328125 13.914062L10.707031 9.2929688 A 1.0001 1.0001 0 0 0 9.9902344 8.9902344 z" fill="#FFFFFF" />
</svg>